<svg xmlns="http://www.w3.org/2000/svg" viewBox="0 0 128 128" role="img" aria-label="NX logo">
  <defs>
    <linearGradient id="nxGrad" x1="14" y1="14" x2="114" y2="114" gradientUnits="userSpaceOnUse" gradientTransform="matrix(1, 0, 0, 1, 6, 0)">
      <stop offset="0" stop-color="#2F80FF"></stop>
      <stop offset="0.55" stop-color="#6A5CFF"></stop>
      <stop offset="1" stop-color="#B04CFF"></stop>
    </linearGradient>
  </defs>
  <g fill="none" stroke="url(#nxGrad)" stroke-linecap="round">
    <circle cx="64" cy="64" r="50" stroke-width="4"></circle>
    <circle cx="64" cy="64" r="46" stroke-width="1"></circle>
  </g>
  <g fill="url(#nxGrad)" transform="matrix(1, 0, 0, 1, -5, 0)">
    <g transform="matrix(1, 0, 0, 1, -2, 0)">
      <path d="M 40 88 L 40 40 L 50 40 L 66.687 71.691 L 66.687 71.725 L 75.176 71.863 L 76 88 L 66.961 87.863 L 49.588 53.288 L 50 88 L 40 88 Z"></path>
    </g>
    <g transform="matrix(1, 0, 0, 1, 1, 0)">
      <path d="M 54 40 L 88 88 L 98.885 87.868 L 64.104 40.005 L 54 40 Z"></path>
      <path d="M 64.36 69.328 L 75.365 69.454 L 101.357 39.995 L 89.39 40.143 L 64.36 69.328 Z"></path>
    </g>
  </g>
</svg>